<svg width="58" height="17" viewBox="0 0 58 17" fill="none" xmlns="http://www.w3.org/2000/svg">
<mask id="mask0_79_957" style="mask-type:alpha" maskUnits="userSpaceOnUse" x="0" y="0" width="58" height="17">
<path d="M0.942383 0.833496H57.7861V16.1668H0.942383V0.833496Z" fill="white"/>
</mask>
<g mask="url(#mask0_79_957)">
<path fill-rule="evenodd" clip-rule="evenodd" d="M5.71007 3.93732V3.93418C5.18218 3.93418 4.65429 3.93381 4.12649 3.93456C4.02474 3.93475 4.02323 3.93665 4.022 4.03611C4.02048 4.16395 4.02162 4.29169 4.02162 4.41952C4.02162 5.31408 4.02143 6.20864 4.02181 7.1031C4.02181 7.23131 4.02266 7.23369 4.12356 7.23369C5.08687 7.2335 6.05038 7.23615 7.01369 7.22961C7.29478 7.22761 7.57521 7.198 7.8475 7.11563C8.2131 7.00497 8.43905 6.76638 8.521 6.39227C8.60579 6.00545 8.60229 5.61378 8.58391 5.22145C8.57605 5.05433 8.55966 4.88777 8.51598 4.72511C8.43792 4.43423 8.26663 4.22364 7.98515 4.10966C7.91211 4.08015 7.83689 4.05471 7.76081 4.03412C7.49573 3.96171 7.22297 3.94358 6.9505 3.93912C6.53724 3.93238 6.12342 3.93732 5.71007 3.93732ZM5.92181 9.80936V9.80614C5.3278 9.80614 4.73378 9.80595 4.14004 9.80642C4.02361 9.80642 4.02361 9.80775 4.02162 9.92116C4.02143 9.93435 4.02162 9.94754 4.02162 9.96083C4.02162 11.0889 4.02162 12.2172 4.02162 13.3454C4.02162 13.3717 4.02275 13.3983 4.02181 13.4247C4.0201 13.4729 4.03886 13.4995 4.09078 13.4971C4.12593 13.4954 4.16117 13.4971 4.19651 13.4971C5.19061 13.4971 6.18491 13.4982 7.17911 13.4961C7.35494 13.4957 7.53116 13.4878 7.70624 13.4731C7.89913 13.4569 8.08965 13.4238 8.27345 13.3581C8.57112 13.2513 8.76941 13.0498 8.86519 12.747C8.9011 12.6333 8.92696 12.5175 8.94136 12.3994C8.99461 11.9602 8.98456 11.5199 8.96126 11.0796C8.95415 10.9436 8.93141 10.8086 8.90186 10.6749C8.80986 10.2586 8.55786 10.0047 8.1446 9.90246C7.8691 9.83423 7.58857 9.81458 7.30738 9.81098C6.84553 9.80509 6.38367 9.80936 5.92181 9.80936ZM10.5501 8.4009C10.5555 8.42861 10.5798 8.43383 10.5977 8.4438C11.3438 8.85929 11.7817 9.50273 11.9771 10.3226C12.1326 10.9755 12.152 11.6395 12.1226 12.3064C12.1043 12.7256 12.0499 13.1396 11.9404 13.5456C11.6452 14.6405 10.9513 15.3577 9.88545 15.7229C9.41715 15.8833 8.93369 15.9698 8.44218 16.0195C7.98629 16.0654 7.52917 16.0715 7.07139 16.0709C5.50079 16.0692 3.93 16.0701 2.35922 16.0704C2.13904 16.0704 1.91934 16.0606 1.70267 16.0185C1.63408 16.0051 1.56577 15.9864 1.49926 15.9642C1.27587 15.8891 1.12779 15.7365 1.04783 15.5156C0.973268 15.3098 0.959625 15.0941 0.945699 14.8786C0.941246 14.8084 0.942762 14.7377 0.942762 14.6672C0.942762 10.7006 0.942762 6.73393 0.942383 2.76725C0.942383 2.55097 0.95233 2.33544 0.993637 2.12277C1.00766 2.0495 1.02755 1.9768 1.05304 1.90667C1.1311 1.69029 1.2807 1.54528 1.49746 1.46812C1.69045 1.39932 1.89196 1.38157 2.09385 1.36876C2.19475 1.36231 2.29612 1.3624 2.3973 1.3624C3.94166 1.36202 5.48601 1.36117 7.03037 1.36269C7.70937 1.36335 8.38334 1.41887 9.04577 1.57717C9.29834 1.63762 9.54523 1.71696 9.78464 1.81803C10.7293 2.21691 11.3259 2.91568 11.5812 3.90894C11.7486 4.56083 11.7664 5.22402 11.7259 5.8909C11.7035 6.26121 11.6442 6.62583 11.5299 6.9802C11.3552 7.52229 11.0584 7.98124 10.6101 8.33732C10.5873 8.35563 10.555 8.36683 10.5501 8.4009Z" fill="#03A0F7"/>
<path fill-rule="evenodd" clip-rule="evenodd" d="M39.3192 3.93754V3.93421C38.7915 3.93421 38.2637 3.93393 37.7362 3.9344C37.6227 3.93459 37.6203 3.93583 37.6203 4.03756C37.6198 5.06831 37.6198 6.09896 37.6203 7.1298C37.6203 7.23134 37.6225 7.23372 37.7219 7.23372C38.6892 7.23353 39.6568 7.23571 40.624 7.22964C40.892 7.22793 41.1592 7.19917 41.4195 7.12629C41.796 7.02075 42.0353 6.78312 42.1219 6.39809C42.1372 6.32957 42.1496 6.26001 42.1587 6.19026C42.2056 5.83048 42.195 5.46937 42.178 5.10864C42.1709 4.96382 42.1464 4.82004 42.1036 4.68015C42.0214 4.4112 41.8538 4.21873 41.593 4.11159C41.5201 4.0816 41.4449 4.05588 41.3689 4.035C41.104 3.9624 40.8314 3.94361 40.5592 3.93924C40.1459 3.9326 39.7324 3.93754 39.3192 3.93754ZM39.5196 9.80939V9.80626C38.9256 9.80626 38.3317 9.80597 37.7378 9.80645C37.6218 9.80654 37.6218 9.80778 37.62 9.92119C37.6198 9.93438 37.62 9.94767 37.62 9.96086C37.62 11.0892 37.62 12.2174 37.62 13.3457C37.62 13.3721 37.6216 13.3985 37.62 13.425C37.6167 13.4749 37.6384 13.4986 37.689 13.497C37.7242 13.4958 37.7594 13.4971 37.7946 13.4971C38.7844 13.4971 39.7743 13.4982 40.7643 13.4961C40.9445 13.4957 41.125 13.4882 41.3046 13.4734C41.5062 13.4566 41.7053 13.4223 41.8969 13.3507C42.1791 13.2451 42.3686 13.0504 42.4643 12.7655C42.4909 12.6866 42.5107 12.6047 42.5264 12.5228C42.5898 12.1917 42.5849 11.8565 42.5831 11.5215C42.5818 11.2348 42.5679 10.9497 42.5048 10.6681C42.4128 10.2565 42.1622 10.0067 41.7556 9.9041C41.4805 9.83464 41.2 9.81452 40.9187 9.811C40.4523 9.80522 39.986 9.80939 39.5196 9.80939ZM44.1356 8.40217C44.1656 8.42181 44.1826 8.43472 44.2011 8.44487C44.9245 8.84698 45.3593 9.46632 45.5654 10.2591C45.6836 10.7142 45.7242 11.1786 45.7331 11.6464C45.7434 12.1803 45.7241 12.7124 45.6168 13.238C45.5158 13.7306 45.3479 14.1953 45.0537 14.6082C44.6916 15.1168 44.1995 15.4509 43.6244 15.6725C43.1952 15.8379 42.7487 15.9327 42.2939 15.9911C41.7913 16.0558 41.2863 16.0719 40.7798 16.0712C39.1739 16.0688 37.5679 16.0703 35.962 16.0704C35.7549 16.0704 35.5484 16.0626 35.3444 16.0251C34.8554 15.9355 34.6462 15.7127 34.5806 15.2187C34.5586 15.0523 34.5503 14.8854 34.5503 14.7178C34.5506 10.7203 34.5508 6.72266 34.5503 2.72505C34.5503 2.50858 34.5629 2.29391 34.6056 2.08113C34.6797 1.71149 34.9005 1.49159 35.2695 1.41966C35.4775 1.37913 35.6878 1.36281 35.8992 1.363C37.5844 1.36404 39.2697 1.35769 40.9547 1.37031C41.6555 1.37562 42.3494 1.46588 43.0212 1.68216C43.4952 1.83476 43.9324 2.05513 44.3045 2.39251C44.767 2.81179 45.0422 3.34003 45.1917 3.93886C45.3379 4.52508 45.3681 5.12202 45.3394 5.72343C45.3207 6.11177 45.2744 6.49584 45.1663 6.87043C44.9939 7.46699 44.6836 7.97263 44.1882 8.35595C44.1743 8.36648 44.1619 8.37882 44.1356 8.40217Z" fill="#03A0F7"/>
<path fill-rule="evenodd" clip-rule="evenodd" d="M19.6654 10.8736C19.6654 10.2437 19.6648 9.61376 19.6664 8.98399C19.6665 8.91746 19.658 8.87295 19.585 8.84106C19.0656 8.61329 18.545 8.38932 18.0006 8.22713C17.6414 8.11999 17.2775 8.04046 16.8988 8.0545C16.7162 8.06115 16.5804 8.14058 16.486 8.29584C16.4144 8.41381 16.3711 8.54287 16.3368 8.67517C16.2631 8.95732 16.2259 9.24601 16.2081 9.53585C16.1485 10.504 16.1405 11.4723 16.2313 12.4393C16.2564 12.7067 16.2974 12.9727 16.3905 13.2266C16.5133 13.5614 16.6732 13.6691 17.0282 13.6573C17.2795 13.649 17.5263 13.6073 17.7694 13.5443C18.3841 13.3851 18.9678 13.1409 19.5521 12.8976C19.639 12.8614 19.6683 12.8177 19.6677 12.7236C19.6633 12.107 19.6654 11.4904 19.6654 10.8736ZM19.7077 15.2756C19.26 15.4677 18.824 15.6439 18.3766 15.7905C17.764 15.9916 17.1395 16.1322 16.4936 16.1656C16.1318 16.1844 15.7723 16.1653 15.4179 16.0865C14.6676 15.9197 14.1518 15.4651 13.8271 14.7782C13.6279 14.3569 13.511 13.9107 13.4302 13.4538C13.2948 12.6877 13.2584 11.9135 13.2475 11.1374C13.2391 10.529 13.2519 9.92087 13.301 9.31434C13.3573 8.61937 13.4507 7.93046 13.6921 7.2706C13.7696 7.05906 13.8646 6.85625 13.9821 6.66379C14.3331 6.08839 14.8455 5.74883 15.5025 5.62299C16.0006 5.52761 16.5007 5.54194 17 5.60979C17.8878 5.73032 18.7215 6.03439 19.5444 6.37357C19.5849 6.39028 19.6257 6.4066 19.6668 6.42245C19.6746 6.42539 19.6838 6.42511 19.7025 6.42767C19.7147 6.38487 19.7289 6.34064 19.7403 6.29575C19.8162 5.99434 20.005 5.80691 20.3048 5.72861C20.4547 5.68942 20.6073 5.67281 20.7611 5.66313C21.1088 5.64121 21.4557 5.64405 21.8006 5.70071C21.8654 5.71134 21.9294 5.72833 21.9924 5.74712C22.2494 5.82409 22.4115 5.99501 22.4865 6.25162C22.534 6.41353 22.5517 6.57989 22.561 6.74702C22.5674 6.86138 22.5674 6.97612 22.5674 7.09066C22.5678 9.59886 22.5677 12.1069 22.5677 14.6151C22.5677 14.8532 22.5597 15.0903 22.5145 15.3255C22.443 15.6974 22.2227 15.916 21.854 15.989C21.6636 16.0269 21.4711 16.0435 21.2772 16.0447C20.9868 16.0466 20.6961 16.0531 20.4096 15.9918C20.3454 15.978 20.2814 15.9606 20.2194 15.9389C19.9926 15.8591 19.8422 15.7029 19.7675 15.4741C19.7472 15.4119 19.7297 15.3487 19.7077 15.2756Z" fill="#03A0F7"/>
<path fill-rule="evenodd" clip-rule="evenodd" d="M26.8318 6.43262C27.1476 6.3026 27.4651 6.17268 27.7879 6.05746C28.3522 5.85608 28.9253 5.68772 29.521 5.60962C30.047 5.54072 30.5726 5.52411 31.0953 5.64226C31.6923 5.77712 32.151 6.10672 32.4797 6.62147C32.724 7.00422 32.8687 7.42787 32.9938 7.86101C33.15 8.4011 33.1732 8.956 33.1752 9.5108C33.1815 11.2695 33.1779 13.028 33.177 14.7867C33.1769 14.9986 33.1576 15.2087 33.1065 15.4154C33.0318 15.7176 32.8436 15.9056 32.5463 15.9881C32.4099 16.026 32.2709 16.047 32.1303 16.0554C31.7433 16.0789 31.3567 16.0865 30.9726 16.0183C30.8901 16.0037 30.8103 15.9801 30.7323 15.9492C30.5329 15.8704 30.396 15.7307 30.3203 15.5292C30.2607 15.3707 30.2355 15.2056 30.2249 15.0384C30.2171 14.9153 30.2154 14.7917 30.2154 14.6683C30.2147 12.9141 30.2157 11.1598 30.2142 9.40565C30.2141 9.13233 30.1979 8.85967 30.1428 8.59072C30.1278 8.51707 30.1051 8.44646 30.0733 8.37804C29.9719 8.16014 29.8069 8.05176 29.5628 8.05167C29.2111 8.05148 28.8724 8.12284 28.5386 8.22202C27.9853 8.38649 27.4555 8.61264 26.929 8.84648C26.8741 8.87087 26.8412 8.9001 26.85 8.96454C26.8541 8.99482 26.8507 9.02613 26.8507 9.05698C26.8507 10.917 26.8511 12.777 26.8503 14.637C26.8501 14.8837 26.8462 15.1298 26.793 15.3733C26.7201 15.7076 26.5269 15.9195 26.1915 16.0005C26.0711 16.0296 25.9496 16.0491 25.8269 16.0568C25.4489 16.0804 25.0708 16.0887 24.696 16.018C24.6273 16.005 24.5591 15.9854 24.4931 15.962C24.2708 15.8835 24.1247 15.7281 24.0492 15.5059C23.9994 15.3591 23.9741 15.2068 23.9665 15.0524C23.9582 14.8852 23.9526 14.7178 23.9525 14.5504C23.9516 12.0865 23.951 9.6226 23.9531 7.15872C23.9535 6.8817 23.9524 6.60411 24.0137 6.33022C24.0878 5.99891 24.2845 5.79572 24.6159 5.72312C24.9803 5.64331 25.3494 5.64378 25.7189 5.662C25.8814 5.66988 26.0429 5.68677 26.202 5.72606C26.5146 5.80293 26.7072 5.99663 26.785 6.30782C26.7934 6.34189 26.8025 6.37587 26.8127 6.40946C26.8151 6.41705 26.8235 6.42275 26.8318 6.43262Z" fill="#03A0F7"/>
<path fill-rule="evenodd" clip-rule="evenodd" d="M54.9149 11.6093C54.9149 12.6583 54.9147 13.7072 54.9151 14.7562C54.9151 14.9238 54.9073 15.0907 54.8837 15.257C54.82 15.7086 54.6175 15.9401 54.1726 16.0225C53.7062 16.1089 53.2341 16.1079 52.7677 16.0283C52.2944 15.9477 52.092 15.7111 52.0299 15.2294C52.0077 15.0584 52.0018 14.8871 52.0018 14.7152C52.0018 12.5555 52.002 10.3958 52.0011 8.23621C52.0011 8.04678 52.0332 8.06006 51.8261 8.05817C51.6322 8.05627 51.4397 8.04298 51.249 8.00426C50.8993 7.93318 50.6761 7.73151 50.5995 7.37695C50.5272 7.04061 50.5254 6.70209 50.5947 6.3668C50.6777 5.96498 50.8997 5.7692 51.3141 5.70276C51.5105 5.67126 51.7084 5.66879 51.906 5.66233C52.0055 5.65901 52.0063 5.65911 52.0106 5.56031C52.0307 5.10241 52.0531 4.64488 52.1121 4.18991C52.1733 3.71729 52.2667 3.25322 52.4264 2.80176C52.6115 2.27865 52.9619 1.92315 53.4642 1.70449C53.8592 1.53243 54.2716 1.43326 54.6988 1.39112C55.2256 1.33911 55.7538 1.35297 56.2812 1.36929C56.4964 1.37603 56.7102 1.40592 56.9193 1.46344C57.4855 1.61898 57.7503 1.94554 57.7828 2.53224C57.7912 2.68256 57.7812 2.83213 57.7499 2.97923C57.6665 3.3709 57.433 3.63881 57.0699 3.79824C56.7615 3.93367 56.4344 3.96641 56.103 3.97429C55.9055 3.97894 55.7073 3.96689 55.5109 4.00418C55.1593 4.07109 54.9895 4.2441 54.9416 4.60113C54.8975 4.93016 54.9193 5.26108 54.924 5.59144C54.9246 5.63367 54.9401 5.65759 54.9853 5.65655C55.0206 5.65579 55.0558 5.65702 55.0911 5.65702C55.4738 5.65655 55.8566 5.65493 56.2389 5.67458C56.3801 5.68179 56.5191 5.70162 56.6551 5.7393C56.9322 5.81627 57.1115 5.9925 57.1892 6.27152C57.2682 6.55604 57.2727 6.84549 57.2471 7.13675C57.2376 7.24636 57.2183 7.35455 57.1856 7.46047C57.1036 7.72582 56.9303 7.89693 56.6658 7.97617C56.4917 8.02818 56.3126 8.05171 56.1322 8.05418C55.7668 8.0594 55.4018 8.05826 55.0365 8.06026C54.9162 8.06092 54.9151 8.06158 54.9151 8.18467C54.9147 9.32617 54.9149 10.4678 54.9149 11.6093Z" fill="#03A0F7"/>
<path fill-rule="evenodd" clip-rule="evenodd" d="M49.7748 10.8603C49.7748 12.1472 49.7755 13.4339 49.7744 14.7207C49.7742 14.9453 49.7638 15.1694 49.7132 15.3903C49.6388 15.7137 49.4468 15.9168 49.1234 15.997C48.999 16.028 48.8733 16.0476 48.7462 16.0557C48.3636 16.0798 47.9815 16.0869 47.6021 16.0177C47.5196 16.0027 47.44 15.9787 47.3623 15.9467C47.1683 15.8666 47.0366 15.7273 46.963 15.5314C46.8922 15.3433 46.8728 15.146 46.8611 14.9481C46.8549 14.8425 46.8556 14.7366 46.8556 14.6309C46.8551 12.1234 46.8551 9.61584 46.8554 7.1084C46.8554 6.86592 46.8614 6.6243 46.9073 6.38476C46.9767 6.02129 47.1837 5.79617 47.548 5.71693C47.6817 5.6877 47.8166 5.67157 47.9525 5.66303C48.3047 5.64063 48.6559 5.6411 49.0049 5.70118C49.0739 5.71304 49.1422 5.73183 49.2089 5.75337C49.4527 5.83224 49.6101 5.9969 49.6872 6.24165C49.7649 6.48906 49.7738 6.74445 49.7742 6.99993C49.7757 8.28672 49.7748 9.57352 49.7748 10.8603Z" fill="#03A0F7"/>
<path fill-rule="evenodd" clip-rule="evenodd" d="M47.1188 2.63174C47.118 2.96504 47.2646 3.31372 47.5013 3.53067C47.7156 3.72702 47.9644 3.79725 48.2459 3.71098C48.9268 3.5022 49.1487 2.72959 48.8591 2.19955C48.6606 1.83598 48.214 1.64845 47.807 1.75284C47.4054 1.85591 47.1196 2.22081 47.1188 2.63174ZM46.3805 2.73832C46.3516 1.7295 47.2784 0.673888 48.5301 0.853635C48.9655 0.916082 49.3503 1.0778 49.6646 1.39117C49.9614 1.68698 50.1377 2.04828 50.2011 2.45854C50.3133 3.18417 50.1375 3.83388 49.633 4.37483C49.2742 4.75938 48.8265 4.98525 48.2967 5.00869C47.8195 5.02976 47.4243 4.83018 47.098 4.49308C46.7155 4.09838 46.4988 3.61912 46.4087 3.07978C46.3893 2.96239 46.377 2.84414 46.3805 2.73832Z" fill="#B7C711"/>
</g>
<path fill-rule="evenodd" clip-rule="evenodd" d="M47.1182 2.63172C47.119 2.22079 47.4048 1.85589 47.8065 1.75282C48.2135 1.64843 48.66 1.83596 48.8585 2.19953C49.1481 2.72956 48.9262 3.50217 48.2453 3.71096C47.9638 3.79723 47.715 3.727 47.5007 3.53064C47.264 3.31369 47.1174 2.96502 47.1182 2.63172Z" fill="#03A0F7"/>
</svg>
