<svg width="45" height="15" viewBox="0 0 45 15" fill="none" xmlns="http://www.w3.org/2000/svg">
<path fill-rule="evenodd" clip-rule="evenodd" d="M38.9211 0.50232C40.0065 0.50232 40.2139 0.775465 40.5942 1.92778L44.7881 14.4936H41.0513L40.1406 11.4734H35.1115L34.2054 14.4948H32.0488L36.2794 0.5L38.9211 0.50232ZM39.5174 9.42391H35.7169L37.6043 3.04008L39.5174 9.42391Z" fill="#0054A0"/>
<path fill-rule="evenodd" clip-rule="evenodd" d="M17.7502 14.5H11.9438V0.5H17.9615C20.7825 0.5 21.766 2.82782 20.3369 4.97587L19.6621 5.98958C24.3945 8.47805 22.8554 14.5 17.7502 14.5ZM17.06 6.65998L18.213 4.9173C18.5045 4.48061 18.5664 4.20631 18.5664 3.90011C18.5664 3.04472 17.8229 2.32677 16.9677 2.32677H15.1955V12.6205H16.1773C17.8206 12.6205 19.0681 11.721 19.0681 9.6176C19.0681 7.8813 18.2628 6.95458 17.06 6.65998Z" fill="#0054A0"/>
<path fill-rule="evenodd" clip-rule="evenodd" d="M6.05632 14.5H0.25V0.5H6.26825C9.08864 0.5 10.0721 2.82782 8.64359 4.97587L7.96827 5.98958C12.7012 8.47805 11.1627 14.5 6.05632 14.5ZM5.36611 6.65998L6.51913 4.9173C6.81068 4.48061 6.87254 4.20631 6.87254 3.90011C6.87254 3.04472 6.13021 2.32677 5.27504 2.32677H3.50227V12.6205H4.48403C6.12792 12.6205 7.3743 11.721 7.3743 9.6176C7.3743 7.8813 6.57011 6.95458 5.36611 6.65998Z" fill="#0054A0"/>
<path fill-rule="evenodd" clip-rule="evenodd" d="M31.4854 0.5H33.6671L29.4543 14.4948L26.1367 14.493L21.6174 0.50174L24.0592 0.5C25.0026 0.5 25.25 0.746469 25.7432 2.33083L28.3603 11.1295L31.4854 0.5Z" fill="#0054A0"/>
</svg>
