<svg width="61" height="17" viewBox="0 0 61 17" fill="none" xmlns="http://www.w3.org/2000/svg">
<path fill-rule="evenodd" clip-rule="evenodd" d="M28.3025 2.42883C30.1764 0.918232 33.0107 0.47138 35.428 1.12682C36.3336 1.35545 37.3685 1.78798 37.5749 2.6684C37.5976 3.39571 37.2496 4.09463 37.1127 4.80944C35.9673 3.8949 34.3014 3.58841 32.7876 3.79569C31.153 4.08422 29.9953 5.30108 29.3873 6.57966C28.6897 8.08896 28.3605 9.81934 28.9959 11.388C29.3312 12.2289 30.0975 12.9476 31.095 13.214C32.6713 13.6244 34.3638 13.1095 35.5385 12.1643C35.3052 13.077 35.1905 14.0137 34.8968 14.9121C34.5992 15.6558 33.6438 15.9222 32.8335 16.0521C30.6992 16.3888 28.2356 16.0107 26.7286 14.5678C25.2498 13.1726 24.9104 11.181 24.983 9.35661C25.0959 6.8208 26.0825 4.17562 28.3025 2.42883Z" fill="#2F4576"/>
<path fill-rule="evenodd" clip-rule="evenodd" d="M15.7417 9.29923C15.4666 10.2682 15.3054 11.2601 15.0674 12.2361C14.989 12.6561 14.7489 13.1186 15.1113 13.4896C16.24 13.486 17.4606 13.5581 18.449 12.9871C19.6365 12.3858 20.0274 10.7669 19.0432 9.88254C18.1454 9.17294 16.8545 9.33855 15.7417 9.29923ZM16.983 3.59041C16.7677 4.60624 16.5133 5.61661 16.3416 6.63765C16.2859 6.92383 16.6828 7.0444 16.9457 7.00326C18.0088 7.03893 19.2086 6.92383 19.9906 6.22882C20.6976 5.57703 20.7903 4.2836 19.8019 3.80134C18.9457 3.38313 17.9179 3.57453 16.983 3.59041ZM14.0416 1.42047C15.6116 1.16658 17.2145 1.02075 18.8132 1.06215C20.2774 1.13246 21.8519 1.4025 22.9377 2.32824C24.2302 3.40188 24.2676 5.30673 23.2272 6.52568C22.5944 7.26236 21.6698 7.80634 20.6354 8.00972C21.4464 8.30319 22.2448 8.7227 22.6438 9.43594C23.5828 11.1106 23.0762 13.2988 21.4735 14.5341C20.2009 15.5513 18.4352 15.908 16.7596 16.009C15.5102 16.0484 14.23 16.0145 13.0323 15.6773C12.395 15.5083 11.8884 15.0528 11.6818 14.507C11.3672 13.7076 11.4916 12.8397 11.6797 12.029C12.4839 8.49615 13.2264 4.95206 14.0416 1.42047Z" fill="#2F4576"/>
<path fill-rule="evenodd" clip-rule="evenodd" d="M43.1392 3.69844C42.8301 5.09941 42.5085 6.49882 42.2222 7.90187C42.1218 8.18623 42.3578 8.44898 42.6376 8.57527C43.5008 8.71199 44.4244 8.58595 45.185 8.20602C46.6207 7.47507 47.2243 5.76422 46.5661 4.46012C45.8808 3.43205 44.299 3.61042 43.1392 3.69844ZM39.9423 1.50689C41.0475 1.20299 42.2287 1.18112 43.3814 1.13972C44.9721 1.11993 46.6709 1.16107 48.0684 1.89567C49.1467 2.42351 49.7923 3.45366 49.9243 4.49632C50.2942 6.81208 48.9591 9.30779 46.5434 10.4265C44.9533 11.2095 43.0744 11.253 41.2944 11.152C41.0038 12.2993 40.8097 13.4643 40.5045 14.6078C40.3478 15.213 39.9007 15.8069 39.1794 15.991C38.3605 16.0574 37.5352 15.9983 36.7161 16.0179C37.8424 11.1921 38.8329 6.33867 39.9423 1.50689Z" fill="#2F4576"/>
<path fill-rule="evenodd" clip-rule="evenodd" d="M51.5547 4.74487C52.0566 3.7095 52.7398 2.60383 53.9811 2.15906C54.6092 1.94683 55.2697 2.23458 55.6478 2.6869C56.3917 4.29125 56.2148 6.09037 55.6316 7.71086C54.5034 6.49686 53.1278 5.47582 51.5547 4.74487Z" fill="#2F4576"/>
<path fill-rule="evenodd" clip-rule="evenodd" d="M55.6474 2.68701C57.0641 3.32057 58.0802 4.47676 59.0477 5.56108C59.7915 6.36573 60.2749 7.39953 60.1594 8.45469C60.0799 9.35152 59.5436 10.151 58.9337 10.8481C57.7162 12.2381 56.2165 13.4193 54.5827 14.4119C53.91 14.7955 53.0849 15.1304 52.2739 14.9109C51.1681 14.664 50.4324 13.7943 49.9854 12.9154C52.3893 11.736 54.6253 10.0395 55.6312 7.71097C56.2144 6.09048 56.3913 4.29136 55.6474 2.68701Z" fill="#E06C3E"/>
<path fill-rule="evenodd" clip-rule="evenodd" d="M1.60718 4.74487C2.10909 3.7095 2.79206 2.60383 4.03363 2.15906C4.66174 1.94683 5.32224 2.23458 5.7003 2.6869C6.44415 4.29125 6.26727 6.09037 5.6841 7.71086C4.55592 6.49686 3.18031 5.47582 1.60718 4.74487Z" fill="#2F4576"/>
<path fill-rule="evenodd" clip-rule="evenodd" d="M5.70039 2.68701C7.11702 3.32057 8.13311 4.47676 9.10061 5.56108C9.84446 6.36573 10.3278 7.39953 10.2123 8.45469C10.1329 9.35152 9.59651 10.151 8.98669 10.8481C7.76916 12.2381 6.26944 13.4193 4.63569 14.4119C3.96291 14.7955 3.13781 15.1304 2.32681 14.9109C1.2211 14.664 0.485353 13.7943 0.0385742 12.9154C2.4423 11.736 4.67828 10.0395 5.68419 7.71097C6.26735 6.09048 6.44423 4.29136 5.70039 2.68701Z" fill="#E06C3E"/>
</svg>
