<svg xmlns="http://www.w3.org/2000/svg" width="71" height="20" fill="none" xmlns:v="https://vecta.io/nano"><g clip-path="url(#A)" fill-rule="evenodd"><path d="M13.191 2.159H57.55v15.103H13.191V2.159zm6.565 8.482v1.631h-.135c-.074-.382-.273-.728-.566-.984-.262-.223-.596-.344-.94-.341-.288-.001-.569.087-.805.253s-.426.394-.535.663a3.01 3.01 0 0 0-.217 1.166 3.95 3.95 0 0 0 .158 1.151 1.53 1.53 0 0 0 .498.784 1.38 1.38 0 0 0 .878.266c.282.003.56-.063.811-.194a2.82 2.82 0 0 0 .775-.669v.404a2.56 2.56 0 0 1-.821.599c-.317.13-.657.194-.999.186-.462.009-.92-.095-1.333-.301a2.13 2.13 0 0 1-.899-.866 2.42 2.42 0 0 1-.316-1.203c.004-.45.126-.891.354-1.278s.554-.709.945-.931.823-.333 1.267-.332c.358.006.712.079 1.044.215.128.059.264.102.404.125.036 0 .072-.007.105-.021s.063-.035.088-.061c.062-.073.099-.164.105-.259l.136-.002zm3.126.05a2.33 2.33 0 0 1 1.799.631 2.33 2.33 0 0 1 .725 1.763c.008.568-.177 1.122-.526 1.571a2.33 2.33 0 0 1-1.958.899 2.38 2.38 0 0 1-1.962-.858 2.48 2.48 0 0 1-.549-1.609c-.009-.324.05-.646.173-.946s.306-.571.54-.796a2.27 2.27 0 0 1 1.757-.656zm.042.22c-.211 0-.417.062-.592.179s-.312.283-.392.478c-.208.489-.302 1.019-.274 1.549a3 3 0 0 0 .424 1.775.97.97 0 0 0 .827.401 1 1 0 0 0 .598-.173c.227-.182.394-.429.477-.708.126-.41.183-.838.171-1.267.021-.471-.038-.941-.174-1.392a1.35 1.35 0 0 0-.443-.652 1.05 1.05 0 0 0-.622-.191zm6.121 2.937l1.284-3.1h1.902v.12h-.152a.64.64 0 0 0-.331.075c-.063.038-.112.096-.138.165-.035.144-.047.293-.038.441v3.099c-.009.152.003.305.038.454.034.069.089.124.158.158.097.051.206.074.316.068h.153v.12h-2.447v-.12h.152c.115.005.229-.02.331-.073a.34.34 0 0 0 .138-.168 1.47 1.47 0 0 0 .038-.44v-3.479l-1.806 4.281h-.082l-1.831-4.25v3.307a2.89 2.89 0 0 0 .018.429.5.5 0 0 0 .196.284c.143.084.308.122.473.11v.121h-1.61v-.121h.049c.1.003.199-.015.291-.053a.47.47 0 0 0 .205-.145.64.64 0 0 0 .105-.255c.005-.026.007-.144.007-.357v-2.969c.01-.152-.003-.305-.038-.453-.034-.069-.089-.124-.158-.158-.097-.05-.206-.074-.316-.068h-.15v-.12h1.917l1.326 3.098zm5.24-2.831v1.915h.094c.123.011.247-.009.36-.058s.213-.125.29-.222a1.72 1.72 0 0 0 .256-.826h.135v2.461h-.135a1.83 1.83 0 0 0-.175-.658.76.76 0 0 0-.311-.345 1.18 1.18 0 0 0-.514-.088v1.32a1.87 1.87 0 0 0 .033.473c.023.06.067.11.123.142a.58.58 0 0 0 .291.055h.281a1.51 1.51 0 0 0 1.625-1.23h.129l-.21 1.493H32.5v-.121h.155c.114.005.228-.02.329-.073.064-.038.114-.097.138-.168a1.47 1.47 0 0 0 .038-.44v-3.099a2.44 2.44 0 0 0-.018-.395c-.019-.076-.064-.143-.128-.188a.59.59 0 0 0-.359-.098H32.5v-.12h3.928v1.39h-.135a1.69 1.69 0 0 0-.281-.732c-.135-.157-.313-.27-.512-.326a2.77 2.77 0 0 0-.724-.063h-.491zm4.687 2.29v1.326a1.42 1.42 0 0 0 .047.479c.035.07.093.126.164.158.142.049.291.069.441.059v.12H37.22v-.12c.15.011.3-.01.442-.06a.35.35 0 0 0 .163-.158 1.41 1.41 0 0 0 .047-.478v-3.07c.012-.161-.004-.323-.047-.479a.34.34 0 0 0-.164-.158 1.12 1.12 0 0 0-.441-.059v-.12h2.184c.419-.016.838.024 1.247.118a1.25 1.25 0 0 1 .645.436c.167.212.255.475.249.744.004.162-.028.323-.092.472s-.161.281-.282.389a1.53 1.53 0 0 1-.67.322l1.126 1.592c.092.138.198.266.316.383.096.071.211.112.331.117v.128h-1.48l-1.517-2.141h-.308l.003.001zm0-2.298v2.052h.197a2.25 2.25 0 0 0 .722-.087.72.72 0 0 0 .376-.316 1.16 1.16 0 0 0 .137-.598c.023-.286-.067-.57-.252-.789a1.1 1.1 0 0 0-.809-.255l-.371-.006zm7.964-.368v1.631h-.135c-.074-.382-.273-.728-.566-.984-.262-.223-.596-.344-.94-.341-.288-.001-.569.087-.805.253s-.426.394-.535.663a3.01 3.01 0 0 0-.217 1.166 3.95 3.95 0 0 0 .158 1.151 1.53 1.53 0 0 0 .498.784 1.38 1.38 0 0 0 .878.266c.282.003.56-.063.811-.194a2.82 2.82 0 0 0 .775-.669v.404a2.56 2.56 0 0 1-.821.599c-.317.13-.657.194-.999.186-.462.009-.92-.095-1.333-.301a2.13 2.13 0 0 1-.9-.866 2.42 2.42 0 0 1-.316-1.203c.004-.45.126-.891.354-1.278s.554-.709.945-.931.823-.333 1.267-.332a2.87 2.87 0 0 1 1.044.215c.129.059.264.102.404.125.036 0 .072-.007.105-.021s.063-.035.088-.061c.062-.073.099-.164.105-.259l.136-.002zm2.979 4.687v.121H47.47v-.121h.155c.114.005.228-.02.329-.073.065-.038.114-.097.138-.168a1.47 1.47 0 0 0 .038-.44v-3.099c.009-.152-.004-.305-.038-.454a.35.35 0 0 0-.154-.158c-.097-.051-.206-.075-.316-.068h-.152v-.12h2.447v.12h-.155a.64.64 0 0 0-.326.073c-.064.039-.114.098-.14.168a1.47 1.47 0 0 0-.038.44v3.099a1.53 1.53 0 0 0 .039.454.36.36 0 0 0 .155.158c.096.05.203.074.311.068h.154zm2.906-4.637a2.33 2.33 0 0 1 1.8.631 2.33 2.33 0 0 1 .725 1.763c.008.568-.178 1.122-.526 1.571a2.33 2.33 0 0 1-1.958.899 2.38 2.38 0 0 1-1.962-.858 2.48 2.48 0 0 1-.549-1.609c-.009-.324.05-.646.173-.946s.306-.571.54-.796a2.27 2.27 0 0 1 1.753-.656h.004zm.042.22c-.211 0-.417.062-.592.179s-.312.283-.392.478c-.208.489-.302 1.019-.274 1.549a3 3 0 0 0 .425 1.775.97.97 0 0 0 .827.401 1 1 0 0 0 .598-.173c.227-.182.393-.429.476-.708.126-.41.183-.838.17-1.267a4.19 4.19 0 0 0-.174-1.392 1.35 1.35 0 0 0-.443-.652 1.05 1.05 0 0 0-.622-.191h.001zM18.702 6.848c.358.056.701.184 1.009.377.131.091.237.214.31.356s.109.3.107.46a1.05 1.05 0 0 1-.456.874 2.68 2.68 0 0 1-1.624.418h-2.551v-.12c.16.011.321-.009.473-.061a.36.36 0 0 0 .174-.158c.047-.155.064-.318.053-.48V5.471c.012-.162-.006-.325-.053-.481a.36.36 0 0 0-.176-.158c-.153-.049-.313-.069-.473-.059v-.12h2.407c.413-.022.826.027 1.223.144.226.085.423.233.567.427.132.174.205.386.207.604a.83.83 0 0 1-.263.602 1.97 1.97 0 0 1-.934.418zm-1.349-.093a2.06 2.06 0 0 0 .783-.11c.156-.064.29-.171.386-.31.088-.155.134-.331.134-.509s-.046-.354-.134-.509c-.093-.137-.226-.242-.38-.302-.255-.082-.524-.116-.792-.1l.003 1.842zm0 .268v1.671c-.004.051.003.102.02.151s.044.092.08.129c.083.069.189.103.297.095a1.19 1.19 0 0 0 .537-.123c.159-.076.29-.2.376-.354s.134-.336.131-.517c.003-.205-.047-.407-.146-.586a.8.8 0 0 0-.434-.368 2.59 2.59 0 0 0-.86-.099zm6.183.974H21.78l-.218.457c-.061.118-.097.247-.105.38-.003.06.012.12.042.172s.074.095.128.122c.159.054.325.083.492.084v.12h-1.668v-.12a.77.77 0 0 0 .443-.21c.178-.214.323-.455.429-.713l1.792-3.728h.071l1.81 3.831a2.35 2.35 0 0 0 .426.694.6.6 0 0 0 .356.126v.12h-2.427v-.12h.1a.79.79 0 0 0 .41-.078c.026-.017.047-.041.061-.068s.021-.058.02-.09c0-.044-.007-.088-.022-.13-.005-.02-.042-.108-.111-.263l-.271-.584zm-.119-.254l-.748-1.594-.767 1.594h1.515zm4.329-3.091l2.472 2.898V5.541c.022-.2-.024-.402-.13-.574-.079-.074-.174-.13-.277-.164s-.212-.044-.32-.031v-.12h1.659v.12a1.37 1.37 0 0 0-.428.099.42.42 0 0 0-.17.199 1.29 1.29 0 0 0-.06.473v3.896h-.125l-3.39-3.9v2.98a.64.64 0 0 0 .198.549.76.76 0 0 0 .455.143h.119v.12h-1.788v-.12c.206.02.412-.036.579-.158.061-.073.107-.158.135-.249s.037-.187.028-.282V5.212l-.105-.121a.95.95 0 0 0-.281-.25.88.88 0 0 0-.351-.067v-.12l1.782-.002zm8.642-.105V6.17h-.144c-.083-.386-.297-.732-.605-.98-.286-.224-.64-.343-1.004-.34-.305-.002-.604.086-.86.252-.252.159-.451.388-.572.66a2.82 2.82 0 0 0-.233 1.161 3.68 3.68 0 0 0 .169 1.146c.09.31.276.583.532.78a1.55 1.55 0 0 0 .938.263c.3.003.596-.063.866-.193a2.97 2.97 0 0 0 .828-.666v.402a2.74 2.74 0 0 1-.877.597 2.82 2.82 0 0 1-1.066.185 3.24 3.24 0 0 1-1.425-.3 2.21 2.21 0 0 1-.961-.862 2.28 2.28 0 0 1-.338-1.197c.001-.45.131-.891.375-1.269a2.57 2.57 0 0 1 1.013-.932 2.9 2.9 0 0 1 1.354-.33c.381.006.759.078 1.115.214a1.8 1.8 0 0 0 .432.125.29.29 0 0 0 .206-.081.43.43 0 0 0 .113-.258h.144l-.001.001zm3.34.049c.352-.028.706.015 1.041.126s.644.29.908.524a2.26 2.26 0 0 1 .75 1.733 2.38 2.38 0 0 1-.559 1.563c-.256.3-.579.537-.942.692s-.757.224-1.151.202c-.391.023-.782-.042-1.145-.189s-.688-.375-.951-.664c-.387-.442-.596-1.013-.586-1.601-.007-.327.057-.652.188-.952s.327-.567.573-.784c.252-.229.548-.405.87-.517s.663-.157 1.003-.134h0zm.044.219a1.14 1.14 0 0 0-1.052.654 3.27 3.27 0 0 0-.293 1.542 2.83 2.83 0 0 0 .453 1.767c.105.132.24.237.394.306s.322.101.49.093c.225.008.448-.052.639-.171a1.42 1.42 0 0 0 .509-.705 3.65 3.65 0 0 0 .182-1.262c.022-.469-.041-.939-.186-1.386a1.35 1.35 0 0 0-.473-.649 1.18 1.18 0 0 0-.663-.188zm4.919 4.517v-.12h.166c.115.007.23-.016.335-.065a.4.4 0 0 0 .172-.175 1.59 1.59 0 0 0 .033-.438V5.45a1.48 1.48 0 0 0-.04-.452.36.36 0 0 0-.164-.158c-.104-.051-.219-.074-.335-.068h-.166v-.12h2.245a3.83 3.83 0 0 1 1.447.228 2.1 2.1 0 0 1 1.015.845c.233.386.353.83.346 1.281a2.38 2.38 0 0 1-.17.91c-.1.256-.249.489-.439.687a2.18 2.18 0 0 1-.624.434c-.276.121-.566.207-.864.254a4.42 4.42 0 0 1-.711.041h-2.245zm1.909-4.419v3.65a1.17 1.17 0 0 0 .03.355c.02.044.056.08.1.1a.65.65 0 0 0 .289.053c.177.012.355-.018.519-.086s.31-.173.428-.307c.335-.482.492-1.064.446-1.649.023-.498-.081-.993-.304-1.439-.134-.257-.353-.459-.62-.573a2.56 2.56 0 0 0-.888-.104zm5.523.007v1.906h.1c.13.012.26-.007.381-.056s.228-.125.314-.223c.164-.244.258-.528.274-.822h.144v2.449h-.144c-.018-.229-.082-.451-.187-.655-.072-.146-.188-.267-.332-.344-.175-.067-.362-.098-.549-.088v1.315c-.01.159.002.318.035.473.026.061.073.111.132.141a.66.66 0 0 0 .311.055h.3a1.91 1.91 0 0 0 1.128-.302 1.66 1.66 0 0 0 .609-.922h.138l-.226 1.485h-4.335v-.12h.166c.121.005.242-.02.351-.073a.32.32 0 0 0 .148-.167c.037-.143.051-.291.041-.438V5.451c.005-.131-.001-.263-.019-.393-.021-.077-.069-.144-.136-.187-.115-.071-.249-.105-.384-.098h-.166v-.12h4.198v1.383h-.144a1.62 1.62 0 0 0-.3-.728c-.147-.158-.337-.271-.547-.325-.255-.053-.515-.074-.774-.063l-.524-.002z" fill="#000"/><path d="M13.191 1.552H57.55V.012H13.191v1.54z" fill="red"/><g fill="#000"><path d="M13.191 1.552H.198V.012h12.993v1.54zm56.986 0H57.552V.012h12.625v1.54z"/></g><path d="M13.191 19.351H57.55v-1.447H13.191v1.447z" fill="red"/><g fill="#000"><path d="M13.191 19.351H.272v-1.447h12.919v1.447zm57.138 0H57.55v-1.447h12.779v1.447z"/></g><g fill="red"><path d="M70.253 2.158H57.55v15.103h12.703V2.158zm-57.062 0H.12v15.103h13.071V2.158z"/></g></g><defs><clipPath id="A"><path fill="#fff" transform="translate(.12 .009)" d="M0 0h70.209v19.341H0z"/></clipPath></defs></svg>