<svg width="88" height="17" viewBox="0 0 88 17" fill="none" xmlns="http://www.w3.org/2000/svg">
<path fill-rule="evenodd" clip-rule="evenodd" d="M4.3541 13.7209L12.3765 12.3136V3.89516L4.3541 5.30937V13.7209ZM0.711426 16.1668H14.2298C15.2802 16.1668 16.1355 15.3027 16.1355 14.2475V0.833496H2.61808C1.57292 0.833496 0.711426 1.6973 0.711426 2.75265V16.1668Z" fill="#323E79"/>
<path fill-rule="evenodd" clip-rule="evenodd" d="M64.9315 5.37804C65.9227 5.30358 67.09 5.39036 67.9018 6.01296C68.2155 6.25946 68.4998 6.55125 68.7208 6.9876C68.944 7.44517 68.9592 8.01131 69.0028 8.50052V11.1562C69.0028 12.4629 68.5863 13.6282 67.2629 14.2284C66.8319 14.4149 66.3476 14.524 65.8045 14.5363C63.5666 14.5915 61.8763 13.4561 62.0495 11.389C62.1605 9.90185 63.4337 9.25974 64.913 9.15382C65.616 9.10456 66.8442 9.25974 67.2878 9.15951C67.3186 8.70534 67.2074 8.11741 67.0711 7.79797C66.9486 7.52589 66.7425 7.21553 66.3848 7.10564C65.935 6.91636 65.2901 6.89703 64.7724 6.93189C64.0964 6.98153 63.5813 7.08063 62.7978 7.53214L62.804 6.76061C62.804 6.52624 62.835 6.24108 62.9586 6.04403C63.2553 5.56865 64.3067 5.42143 64.9315 5.37804ZM67.3744 10.4187V10.377C66.9122 10.4373 66.4589 10.4062 66.0693 10.4062C65.3086 10.4127 64.8713 10.4746 64.4481 10.6669C64.0408 10.8471 63.8254 11.2276 63.7763 11.5611V11.623C63.721 12.3328 64.0842 12.8586 64.7292 12.9514H64.7469V12.9576C65.517 13.0632 66.1126 12.9391 66.5631 12.7343C66.9186 12.5728 67.1704 12.1613 67.2878 11.6355C67.3744 11.302 67.3678 10.8035 67.3744 10.4187ZM87.4616 5.70507H85.4762L81.8849 9.78552L85.8949 14.3279H87.8755L83.8665 9.78552L87.4616 5.70507ZM79.8871 14.341H81.8911V2.89502H79.8871V14.341ZM74.0084 5.28482H74.7153V5.29732C75.6925 5.29732 76.5845 5.69275 77.2369 6.33392C77.8694 6.98153 78.2773 7.87167 78.2773 8.85938H78.2836V14.341H76.2912V8.85938H76.3027C76.3027 8.41981 76.1313 8.02438 75.8284 7.73544C75.5394 7.45142 75.1526 7.26517 74.7153 7.26517V7.27143H74.0025V7.26517C73.5648 7.26517 73.1735 7.45142 72.8907 7.74131C72.594 8.02438 72.4147 8.41981 72.4147 8.85938H72.4207V14.341H70.4355V8.85938H70.442C70.442 7.87167 70.8482 6.98153 71.4869 6.32786C72.1344 5.6865 73.0251 5.29732 74.0025 5.29732V5.28482H74.0084ZM20.1436 14.341H22.1472V2.89502H20.1436V14.341ZM27.4661 5.28482H28.1788V5.29732C29.1649 5.29732 30.057 5.69275 30.694 6.33392C31.3417 6.98153 31.7394 7.87167 31.7394 8.85938V14.341H29.7604V8.85938H29.7665C29.7604 8.41981 29.5811 8.02438 29.3008 7.73544C29.012 7.45142 28.6039 7.26517 28.1788 7.26517V7.27143H27.4661V7.26517C27.0382 7.26517 26.6433 7.45142 26.3465 7.74131C26.0664 8.02438 25.8871 8.41981 25.8871 8.85938H25.8939V14.341H23.915V8.85938C23.915 7.87167 24.3119 6.98153 24.9592 6.32786C25.6042 5.6865 26.4825 5.29732 27.4661 5.29732V5.28482ZM35.2462 3.06876V5.39661H38.4803L38.4064 6.14161C38.3318 6.804 37.9565 6.99309 37.2126 7.01242H35.2462V11.2399C35.2522 11.3638 35.2584 11.6541 35.2832 11.7657C35.4126 12.425 35.7913 12.6039 36.4087 12.666C37.0103 12.7468 37.993 12.6287 38.462 12.425C38.536 13.1486 38.4371 14.1123 38.0245 14.272C37.6253 14.4245 36.8062 14.4929 36.2417 14.4742C35.9776 14.4681 35.6931 14.4433 35.4191 14.3899C34.9553 14.3031 34.281 13.9385 33.9535 13.6113C33.3397 12.9143 33.3038 12.1179 33.2668 11.2897L33.2608 11.2399V3.06876H35.2462ZM40.41 9.43178H43.4043C44.0703 9.43178 44.8381 9.09205 44.4563 8.20419L44.444 8.18543C44.401 8.09259 44.3513 7.99956 44.2896 7.909C44.2301 7.80971 44.1373 7.71062 44.0446 7.61892C43.558 7.12951 42.8218 6.84739 42.0222 7.11795V7.11189L41.9975 7.12402C41.8633 7.17214 41.7336 7.22804 41.616 7.28999C41.4986 7.35214 41.3872 7.43285 41.2838 7.51963C40.8604 7.86561 40.5459 8.58124 40.41 9.43178ZM43.3177 10.933H40.447C40.4718 11.0377 40.5027 11.137 40.5459 11.2213C40.8906 12.1247 41.653 12.5853 42.5313 12.7468H42.5373C42.6551 12.7653 42.7846 12.7839 42.9084 12.7964C43.0243 12.8087 43.154 12.815 43.2744 12.815C44.2116 12.8396 44.9368 12.5311 45.3902 12.2945C45.4522 12.6786 45.4087 13.3561 45.3617 13.6113C45.1951 14.4494 43.6939 14.5115 43.1417 14.5115V14.5176C42.9694 14.5176 42.7971 14.5115 42.6178 14.4929C42.4384 14.4804 42.2672 14.4581 42.0911 14.4245C39.7835 14.0132 38.536 12.0124 38.6287 9.80428V9.76676C38.6889 7.909 39.7235 6.25321 41.5109 5.70507H41.5169L41.5479 5.69275L41.5543 5.6865C42.987 5.26 44.3045 5.66187 45.1887 6.43339C45.3532 6.58857 45.5133 6.75436 45.6483 6.92545C45.7844 7.10564 45.9141 7.28999 46.0069 7.49481L46.0194 7.51338C46.2215 7.93988 46.3152 8.32053 46.3152 8.68678C46.3152 9.13544 46.1662 9.53087 45.9203 9.86434C45.6913 10.1599 45.4025 10.3878 45.0544 10.5555V10.5616C44.5367 10.8223 43.9102 10.933 43.3177 10.933ZM51.0968 5.28482H51.6765V7.27143H51.0968V7.26517C50.6683 7.26517 50.2742 7.45142 49.9775 7.74131C49.6939 8.02438 49.5178 8.41981 49.5178 8.85938H49.5241V14.341H47.5389V8.85938H47.5415C47.5415 7.87167 47.9426 6.98153 48.5931 6.32786C49.2353 5.6865 50.1134 5.29732 51.0968 5.29732V5.28482ZM54.7687 2.98805L54.7438 6.71097C55.8137 5.61829 57.008 5.35322 58.4996 5.76096C60.1806 6.22232 61.1403 7.80365 61.1633 9.97613C61.2065 12.7528 59.2769 14.4929 56.9948 14.5115C54.492 14.5363 52.7647 12.7716 52.7841 10.2033V2.98805H54.7687ZM56.9393 7.04974C58.2194 7.04974 59.2521 8.16724 59.2521 9.93899C59.2521 11.71 58.2194 12.8709 56.9393 12.8709C56.2499 12.8709 55.6608 12.5791 55.242 12.038C54.824 11.4803 54.7023 10.878 54.6961 10.1715C54.6836 9.33875 54.7561 8.6432 55.1244 8.07403C55.5619 7.4266 56.2193 7.04974 56.9393 7.04974Z" fill="#168649"/>
</svg>
