<svg xmlns="http://www.w3.org/2000/svg" width="59" height="30" fill="none" xmlns:v="https://vecta.io/nano"><g clip-path="url(#A)" fill-rule="evenodd"><path d="M25.457 1.222l-2.277 8.859c-1.52-1.957-3.7-3.294-6.134-3.761L23.963.259c.151-.132.341-.211.541-.226s.4.036.568.145.297.27.366.458.075.394.017.586h.002zM23.99 21.38l1.21 2.012c.077.146.109.311.094.474s-.079.32-.182.448-.241.224-.398.276-.325.056-.483.013l-2.432-.555c.877-.759 1.618-1.661 2.193-2.668h-.002zm-4.864 4.338l-.425 2.86c-.028.184-.112.355-.239.491s-.293.23-.474.27-.371.025-.544-.044-.32-.189-.424-.344l-1.701-2.42c1.309-.023 2.602-.299 3.806-.812zm-7.331.259l-3.701 2.522c-.154.109-.337.169-.526.171s-.373-.054-.529-.16-.276-.257-.344-.433-.08-.369-.035-.552l.907-4.346c1.152 1.273 2.607 2.235 4.23 2.797v.002zm-5.634-4.776L.95 20.217c-.182-.033-.35-.119-.482-.249s-.223-.295-.26-.477-.018-.369.053-.54.192-.316.347-.417l4.346-2.937-.027.738a10.15 10.15 0 0 0 1.234 4.864h.001zm-.946-7.276L1.085 8.643c-.119-.15-.189-.334-.199-.526s.039-.382.142-.544.253-.289.431-.362.374-.089.561-.045l6.316 1.563c-1.543 1.376-2.631 3.188-3.12 5.196h.001zM9.53 7.81l.589-6.955c.015-.199.094-.387.225-.537s.306-.254.501-.297.398-.021.579.061.332.22.428.395l3.644 5.67-.368-.008A10.15 10.15 0 0 0 9.533 7.81H9.53z" fill="#ffed00"/><path d="M56.456 16.885a1.88 1.88 0 0 0-.422-1.305 1.46 1.46 0 0 0-1.136-.466 1.56 1.56 0 0 0-.812.207 1.36 1.36 0 0 0-.54.616c-.125.299-.19.619-.191.943s.063.645.186.944a1.4 1.4 0 0 0 .535.616 1.54 1.54 0 0 0 .822.212 1.45 1.45 0 0 0 .62-.109c.196-.081.372-.204.516-.361a1.87 1.87 0 0 0 .422-1.298zm-42.509-2.206c.248-.329.569-.597.937-.781s.775-.281 1.187-.282h.23c1.483 0 2.405 1.348 2.405 2.886v2.908c0 .173-.069.339-.191.461s-.288.191-.461.192h-.527c-.173 0-.339-.069-.461-.192s-.191-.288-.192-.461v-2.98a1.14 1.14 0 0 0-.305-.842 1.14 1.14 0 0 0-.372-.265c-.141-.062-.293-.095-.446-.098h-.169c-.154.002-.306.035-.447.098s-.268.152-.373.265-.187.245-.24.39-.076.299-.068.452v2.982c-.001.173-.069.339-.192.461s-.288.191-.461.192h-.527c-.173 0-.339-.069-.461-.192s-.191-.288-.192-.461V16.43a1.14 1.14 0 0 0-.305-.842 1.14 1.14 0 0 0-.819-.363h-.169c-.154.002-.306.035-.447.098s-.268.152-.373.265-.187.245-.24.39-.076.299-.068.452v2.982c0 .173-.069.339-.191.461s-.288.191-.461.192h-.527c-.173-.001-.339-.07-.461-.192s-.191-.288-.192-.461v-5.031c0-.173.069-.339.192-.461s.288-.191.461-.192h.527c.173 0 .339.069.461.192s.191.288.191.461v.034a2.08 2.08 0 0 1 1.69-.797h.158c.381-.001.756.096 1.089.283s.611.455.81.781v-.002zm6.643-3.467h.451a.69.69 0 0 1 .69.69v.46a.69.69 0 0 1-.69.69h-.451a.69.69 0 0 1-.487-.203c-.129-.129-.202-.305-.203-.488v-.46c.001-.183.073-.358.203-.488a.69.69 0 0 1 .487-.203zm-.038 2.515h.526c.173 0 .339.069.461.192s.191.288.192.461v5.032c0 .173-.069.339-.192.461s-.288.191-.461.192h-.526c-.173 0-.339-.069-.461-.192s-.191-.288-.192-.461V14.38c0-.173.069-.339.192-.461s.288-.191.461-.192zm3.507-2.284h-.526c-.173.001-.339.07-.461.192s-.191.288-.192.461v7.316c0 .173.069.339.192.461s.288.191.461.192h.526c.173 0 .339-.069.461-.192s.191-.288.192-.461v-.009c.204.229.453.412.732.539.358.165.749.245 1.142.235.414.006.824-.074 1.205-.236a2.58 2.58 0 0 0 .922-.68c.258-.305.45-.66.564-1.043a4.91 4.91 0 0 0 0-2.679c-.113-.383-.304-.739-.561-1.044-.252-.29-.568-.518-.923-.667-.381-.159-.791-.239-1.205-.235a2.56 2.56 0 0 0-1.142.237 2.15 2.15 0 0 0-.732.579v-2.312c-.001-.173-.07-.339-.192-.461s-.288-.191-.461-.192h-.002zm.653 6.063v-1.19a1.75 1.75 0 0 1 .393-.697 1.37 1.37 0 0 1 1.08-.503 1.54 1.54 0 0 1 .807.207 1.36 1.36 0 0 1 .537.616 2.47 2.47 0 0 1 .004 1.888c-.112.253-.297.468-.531.616-.247.146-.529.22-.816.212-.215.001-.427-.045-.622-.134s-.368-.22-.507-.383c-.162-.179-.28-.395-.344-.628v-.002zm10.926-3.777h.527c.173 0 .339.069.462.191s.191.288.191.462v5.031c0 .173-.069.339-.191.462s-.288.191-.462.192h-.527c-.173-.001-.339-.07-.461-.192s-.191-.288-.191-.461v-.009a2.21 2.21 0 0 1-.732.539c-.358.165-.749.245-1.143.235-.414.006-.824-.074-1.205-.236a2.58 2.58 0 0 1-.922-.68c-.258-.305-.45-.66-.564-1.043a4.91 4.91 0 0 1 0-2.679c.113-.383.304-.739.561-1.044a2.51 2.51 0 0 1 .923-.667 3.05 3.05 0 0 1 1.205-.235c.394-.01.785.071 1.142.237a2.16 2.16 0 0 1 .733.579v-.028c0-.173.069-.339.191-.461s.288-.191.461-.192h.002zm-.652 3.777v-1.19a1.76 1.76 0 0 0-.393-.697 1.37 1.37 0 0 0-1.079-.503 1.54 1.54 0 0 0-.807.207 1.36 1.36 0 0 0-.537.616c-.125.299-.189.62-.19.944a2.46 2.46 0 0 0 .186.944 1.39 1.39 0 0 0 .531.616c.247.146.53.22.817.212a1.48 1.48 0 0 0 .621-.134c.195-.089.368-.22.508-.383.162-.18.28-.395.344-.628v-.002zm15.804 1.904c-.256.247-.568.429-.909.531-.445.162-.915.242-1.388.235-.47.007-.937-.073-1.377-.237a3.07 3.07 0 0 1-1.06-.68 2.93 2.93 0 0 1-.678-1.043 3.95 3.95 0 0 1 0-2.664c.149-.392.38-.748.678-1.043a3.07 3.07 0 0 1 1.06-.68c.44-.164.907-.244 1.377-.237.473-.007.944.073 1.388.235a2.23 2.23 0 0 1 .909.531c.207.23.31.401.123.621l-.509.598c-.046.046-.102.081-.163.104s-.126.033-.191.029-.129-.021-.187-.051-.109-.072-.15-.123c-.324-.288-.747-.439-1.18-.422a1.57 1.57 0 0 0-.828.213 1.4 1.4 0 0 0-.54.615c-.125.298-.189.618-.189.941s.064.643.189.941c.115.255.303.469.54.616a1.57 1.57 0 0 0 .828.212c.433.018.856-.133 1.18-.421.041-.051.092-.093.15-.123s.122-.047.187-.051.13.006.191.029.117.059.163.104l.509.598c.187.221.083.391-.123.621v-.001zm-10.984-4.967c.208-.264.474-.476.777-.619s.636-.215.972-.209h.158c1.483 0 2.501 1.348 2.501 2.886v2.908c0 .173-.069.339-.192.461s-.288.191-.461.192h-.526c-.173 0-.339-.069-.461-.192s-.191-.288-.192-.461V16.43a1.21 1.21 0 0 0-1.204-1.204h-.169a1.21 1.21 0 0 0-1.204 1.204v2.982c0 .173-.069.339-.192.461s-.288.191-.461.192h-.529c-.173-.001-.339-.07-.461-.192s-.191-.288-.192-.461v-5.031c0-.173.069-.339.192-.461s.288-.191.461-.192h.527c.173 0 .339.069.461.192s.191.288.192.461v.064l.003-.003zm18.381 2.442c.005.455-.074.907-.232 1.334a2.92 2.92 0 0 1-1.724 1.722c-.439.162-.905.242-1.373.235a3.7 3.7 0 0 1-1.363-.237 3.04 3.04 0 0 1-1.049-.68c-.296-.296-.525-.651-.673-1.043-.307-.867-.307-1.812 0-2.679.144-.393.372-.75.669-1.046s.655-.522 1.049-.665a4.09 4.09 0 0 1 2.736 0 3 3 0 0 1 1.057.678c.297.296.525.652.669 1.045.157.427.234.879.229 1.334l.005.002z" fill="#009640"/></g><defs><clipPath id="A"><path fill="#fff" transform="translate(.192)" d="M0 0h57.996v29.36H0z"/></clipPath></defs></svg>