<svg width="75" height="17" viewBox="0 0 75 17" fill="none" xmlns="http://www.w3.org/2000/svg">
<path fill-rule="evenodd" clip-rule="evenodd" d="M0.375 8.50017C0.375 7.98199 0.426752 7.47513 0.52537 6.98466H0.375V0.833496H7.99039H15.6058V1.90335V6.98466V8.50017V16.1669H7.99039V16.1668C3.78452 16.1668 0.375 12.706 0.375 8.50017Z" fill="#FFDD00"/>
<path fill-rule="evenodd" clip-rule="evenodd" d="M13.1264 3.32959H7.99048V5.73657H10.7354L10.7354 8.50031H13.1263V5.73657H13.1264V3.32959Z" fill="#10275D"/>
<path d="M21.5286 0.946166H24.5532C25.3039 0.946166 25.8716 1.14021 26.2563 1.52829C26.5541 1.82875 26.703 2.20118 26.703 2.6456V2.66438C26.703 2.85216 26.6782 3.01804 26.6286 3.16201C26.5851 3.30597 26.5231 3.43742 26.4424 3.55635C26.368 3.66902 26.278 3.76917 26.1725 3.8568C26.0733 3.94444 25.9647 4.01955 25.8468 4.08214C26.2253 4.22611 26.5231 4.42328 26.7402 4.67366C26.9574 4.91778 27.066 5.25892 27.066 5.69708V5.71586C27.066 6.01631 27.007 6.2792 26.8891 6.50454C26.7775 6.72988 26.613 6.91767 26.3959 7.06789C26.1849 7.21812 25.9275 7.33079 25.6234 7.4059C25.3256 7.48102 24.9937 7.51857 24.6276 7.51857H21.5286V0.946166ZM25.2791 2.88972C25.2791 2.67064 25.1984 2.50477 25.0371 2.3921C24.8758 2.27317 24.6432 2.2137 24.3391 2.2137H22.9245V3.6033H24.2461C24.5625 3.6033 24.8138 3.55009 24.9999 3.44368C25.186 3.33101 25.2791 3.15262 25.2791 2.9085V2.88972ZM25.6421 5.51868C25.6421 5.2996 25.5583 5.12747 25.3908 5.00228C25.2233 4.87083 24.9534 4.80511 24.5811 4.80511H22.9245V6.25104H24.6276C24.9441 6.25104 25.1922 6.1947 25.3722 6.08203C25.5521 5.9631 25.6421 5.78158 25.6421 5.53746V5.51868Z" fill="#1B2D54"/>
<path d="M30.3854 0.89922H31.7069L34.4989 7.51857H33.0006L32.4049 6.04448H29.6502L29.0546 7.51857H27.5935L30.3854 0.89922ZM31.8931 4.76755L31.0276 2.63621L30.1621 4.76755H31.8931Z" fill="#1B2D54"/>
<path d="M35.4113 0.946166H36.7328L39.7854 4.99289V0.946166H41.2V7.51857H39.9808L36.8259 3.3404V7.51857H35.4113V0.946166Z" fill="#1B2D54"/>
<path d="M45.7233 7.63124C45.2456 7.63124 44.802 7.54361 44.3925 7.36835C43.983 7.19308 43.6294 6.95522 43.3315 6.65477C43.0337 6.34806 42.8011 5.98814 42.6336 5.57502C42.466 5.1619 42.3823 4.72061 42.3823 4.25115V4.23237C42.3823 3.76291 42.466 3.32475 42.6336 2.91789C42.8011 2.50476 43.0337 2.14485 43.3315 1.83814C43.6294 1.52516 43.9861 1.28105 44.4018 1.10578C44.8175 0.924258 45.2766 0.833496 45.7792 0.833496C46.0832 0.833496 46.3593 0.858534 46.6074 0.908609C46.8618 0.958684 47.0914 1.02754 47.2961 1.11517C47.5009 1.2028 47.6901 1.30921 47.8638 1.4344C48.0376 1.55959 48.1989 1.6973 48.3478 1.84752L47.4357 2.9085C47.1814 2.6769 46.9208 2.49538 46.654 2.36393C46.3934 2.23248 46.0987 2.16676 45.7699 2.16676C45.4969 2.16676 45.2425 2.21996 45.0067 2.32637C44.7772 2.43278 44.5786 2.57988 44.4111 2.76766C44.2436 2.95544 44.1133 3.17452 44.0202 3.4249C43.9272 3.66902 43.8806 3.93192 43.8806 4.21359V4.23237C43.8806 4.51404 43.9272 4.78007 44.0202 5.03045C44.1133 5.28082 44.2405 5.4999 44.4018 5.68769C44.5693 5.87547 44.7679 6.0257 44.9974 6.13837C45.2332 6.24478 45.4907 6.29798 45.7699 6.29798C46.1421 6.29798 46.4554 6.22913 46.7098 6.09142C46.9704 5.95371 47.2279 5.76593 47.4823 5.52807L48.3943 6.4576C48.2268 6.63912 48.0531 6.80187 47.8731 6.94583C47.6932 7.0898 47.4947 7.21499 47.2775 7.3214C47.0666 7.42155 46.8339 7.49666 46.5795 7.54674C46.3252 7.60307 46.0397 7.63124 45.7233 7.63124Z" fill="#1B2D54"/>
<path d="M52.6128 7.63124C52.1102 7.63124 51.648 7.54361 51.2261 7.36835C50.8042 7.18682 50.4382 6.94583 50.1279 6.64538C49.8239 6.33867 49.5851 5.98188 49.4113 5.57502C49.2438 5.1619 49.1601 4.72061 49.1601 4.25115V4.23237C49.1601 3.76291 49.2469 3.32475 49.4206 2.91789C49.5944 2.50476 49.8332 2.14485 50.1372 1.83814C50.4475 1.52516 50.8135 1.28105 51.2354 1.10578C51.6635 0.924258 52.1289 0.833496 52.6314 0.833496C53.134 0.833496 53.5962 0.924258 54.0181 1.10578C54.44 1.28105 54.8029 1.52203 55.1069 1.82875C55.4172 2.1292 55.656 2.48599 55.8235 2.89911C55.9973 3.30597 56.0841 3.74413 56.0841 4.21359V4.23237C56.0841 4.70183 55.9973 5.14312 55.8235 5.55624C55.6498 5.9631 55.4079 6.32302 55.0976 6.63599C54.7936 6.9427 54.4276 7.18682 53.9995 7.36835C53.5776 7.54361 53.1153 7.63124 52.6128 7.63124ZM52.6314 6.29798C52.9168 6.29798 53.1805 6.24478 53.4225 6.13837C53.6644 6.03196 53.8692 5.88486 54.0367 5.69708C54.2104 5.50929 54.3438 5.29334 54.4369 5.04923C54.5361 4.79885 54.5858 4.53282 54.5858 4.25115V4.23237C54.5858 3.95069 54.5361 3.68467 54.4369 3.43429C54.3438 3.18391 54.2073 2.96483 54.0274 2.77705C53.8537 2.58927 53.6458 2.44217 53.4038 2.33576C53.1619 2.22309 52.8982 2.16676 52.6128 2.16676C52.3212 2.16676 52.0544 2.21996 51.8124 2.32637C51.5767 2.43278 51.3719 2.57988 51.1982 2.76766C51.0307 2.95544 50.8973 3.17452 50.798 3.4249C50.7049 3.66902 50.6584 3.93192 50.6584 4.21359V4.23237C50.6584 4.51404 50.7049 4.78007 50.798 5.03045C50.8973 5.28082 51.0338 5.4999 51.2075 5.68769C51.3874 5.87547 51.5953 6.0257 51.831 6.13837C52.073 6.24478 52.3398 6.29798 52.6314 6.29798Z" fill="#1B2D54"/>
<path d="M21.5286 9.48176H24.1902C24.5811 9.48176 24.9286 9.53809 25.2326 9.65076C25.5428 9.75717 25.8034 9.91053 26.0143 10.1108C26.2315 10.3111 26.3959 10.5521 26.5076 10.8338C26.6254 11.1092 26.6844 11.4159 26.6844 11.7539V11.7727C26.6844 12.1545 26.6161 12.4894 26.4796 12.7774C26.3432 13.0653 26.1539 13.3063 25.9119 13.5003C25.6762 13.6944 25.397 13.8415 25.0744 13.9416C24.7579 14.0355 24.4167 14.0824 24.0506 14.0824H22.9618V16.0542H21.5286V9.48176ZM24.0972 12.7961C24.457 12.7961 24.7362 12.7022 24.9348 12.5145C25.1333 12.3204 25.2326 12.0826 25.2326 11.8009V11.7821C25.2326 11.4566 25.1271 11.2094 24.9161 11.0404C24.7114 10.8714 24.4291 10.7868 24.0693 10.7868H22.9618V12.7961H24.0972Z" fill="#1B2D54"/>
<path d="M27.7171 9.48176H29.1503V16.0542H27.7171V9.48176Z" fill="#1B2D54"/>
<path d="M33.7379 16.1668C33.2601 16.1668 32.8165 16.0792 32.407 15.9039C31.9976 15.7287 31.6439 15.4908 31.3461 15.1904C31.0483 14.8837 30.8156 14.5237 30.6481 14.1106C30.4806 13.6975 30.3968 13.2562 30.3968 12.7867V12.768C30.3968 12.2985 30.4806 11.8603 30.6481 11.4535C30.8156 11.0404 31.0483 10.6804 31.3461 10.3737C31.6439 10.0608 32.0007 9.81664 32.4163 9.64137C32.832 9.45985 33.2912 9.36909 33.7937 9.36909C34.0977 9.36909 34.3738 9.39413 34.622 9.4442C34.8764 9.49428 35.1059 9.56313 35.3107 9.65076C35.5154 9.73839 35.7047 9.84481 35.8784 9.96999C36.0521 10.0952 36.2134 10.2329 36.3623 10.3831L35.4503 11.4441C35.1959 11.2125 34.9353 11.031 34.6685 10.8995C34.408 10.7681 34.1132 10.7023 33.7844 10.7023C33.5114 10.7023 33.257 10.7556 33.0213 10.862C32.7917 10.9684 32.5932 11.1155 32.4257 11.3033C32.2581 11.491 32.1278 11.7101 32.0348 11.9605C31.9417 12.2046 31.8952 12.4675 31.8952 12.7492V12.768C31.8952 13.0496 31.9417 13.3157 32.0348 13.566C32.1278 13.8164 32.255 14.0355 32.4163 14.2233C32.5839 14.4111 32.7824 14.5613 33.012 14.674C33.2477 14.7804 33.5052 14.8336 33.7844 14.8336C34.1567 14.8336 34.47 14.7647 34.7244 14.627C34.985 14.4893 35.2424 14.3015 35.4968 14.0637L36.4089 14.9932C36.2413 15.1747 36.0676 15.3375 35.8877 15.4814C35.7078 15.6254 35.5092 15.7506 35.2921 15.857C35.0811 15.9571 34.8485 16.0323 34.5941 16.0823C34.3397 16.1387 34.0543 16.1668 33.7379 16.1668Z" fill="#1B2D54"/>
<path d="M37.4631 9.48176H38.8963V12.0826H41.5394V9.48176H42.9726V16.0542H41.5394V13.4158H38.8963V16.0542H37.4631V9.48176Z" fill="#1B2D54"/>
<path d="M44.506 9.48176H45.9392V16.0542H44.506V9.48176Z" fill="#1B2D54"/>
<path d="M47.4742 9.48176H48.7957L51.8483 13.5285V9.48176H53.2629V16.0542H52.0437L48.8888 11.876V16.0542H47.4742V9.48176Z" fill="#1B2D54"/>
<path d="M57.7862 16.1668C57.3085 16.1668 56.8649 16.0792 56.4554 15.9039C56.0459 15.7287 55.6922 15.4908 55.3944 15.1904C55.0966 14.8837 54.864 14.5237 54.6964 14.1106C54.5289 13.6975 54.4452 13.2562 54.4452 12.7867V12.768C54.4452 12.2985 54.5289 11.8603 54.6964 11.4535C54.864 11.0404 55.0966 10.6804 55.3944 10.3737C55.6922 10.0608 56.049 9.81664 56.4647 9.64137C56.8804 9.45985 57.3395 9.36909 57.842 9.36909C58.1461 9.36909 58.4222 9.39413 58.6703 9.4442C58.9247 9.49428 59.1543 9.56313 59.359 9.65076C59.5638 9.73839 59.753 9.84481 59.9267 9.96999C60.1004 10.0952 60.2617 10.2329 60.4107 10.3831L59.4986 11.4441C59.2442 11.2125 58.9837 11.031 58.7169 10.8995C58.4563 10.7681 58.1616 10.7023 57.8327 10.7023C57.5598 10.7023 57.3054 10.7556 57.0696 10.862C56.84 10.9684 56.6415 11.1155 56.474 11.3033C56.3065 11.491 56.1762 11.7101 56.0831 11.9605C55.99 12.2046 55.9435 12.4675 55.9435 12.7492V12.768C55.9435 13.0496 55.99 13.3157 56.0831 13.566C56.1762 13.8164 56.3034 14.0355 56.4647 14.2233C56.6322 14.4111 56.8307 14.5613 57.0603 14.674C57.2961 14.7804 57.5535 14.8336 57.8327 14.8336C58.205 14.8336 58.5183 14.7647 58.7727 14.627C59.0333 14.4893 59.2908 14.3015 59.5451 14.0637L60.4572 14.9932C60.2897 15.1747 60.116 15.3375 59.936 15.4814C59.7561 15.6254 59.5576 15.7506 59.3404 15.857C59.1295 15.9571 58.8968 16.0323 58.6424 16.0823C58.388 16.1387 58.1026 16.1668 57.7862 16.1668Z" fill="#1B2D54"/>
<path d="M61.5114 9.48176H62.9447V12.0826H65.5877V9.48176H67.0209V16.0542H65.5877V13.4158H62.9447V16.0542H61.5114V9.48176Z" fill="#1B2D54"/>
<path d="M70.7227 9.43481H72.0443L74.8362 16.0542H73.3379L72.7423 14.5801H69.9875L69.3919 16.0542H67.9308L70.7227 9.43481ZM72.2304 13.3031L71.3649 11.1718L70.4994 13.3031H72.2304Z" fill="#1B2D54"/>
</svg>
