<svg width="77" height="15" viewBox="0 0 77 15" fill="none" xmlns="http://www.w3.org/2000/svg">
<path fill-rule="evenodd" clip-rule="evenodd" d="M3.6373 7.45627C3.20192 6.74369 3.10776 5.79551 3.10776 5.06776C3.10776 2.5909 5.24924 0.5 7.48141 0.5H14.4747L11.7605 3.32847H7.4339C5.69368 3.32847 3.58979 5.15031 3.6373 7.45627ZM6.30399 5.42874C6.48367 4.83306 7.04647 4.07095 7.57644 3.67026C6.56401 3.67026 5.4246 4.16911 4.5547 5.42874H6.30399ZM7.70385 4.02276C7.30648 4.38418 6.87154 4.93122 6.64953 5.42874H8.74867C8.52667 4.93122 8.09172 4.38418 7.70385 4.02276ZM4.37977 5.79551C4.11976 6.27919 3.99191 6.82624 3.9444 7.37328H5.90662C5.90662 6.82624 6.00165 6.27919 6.17614 5.79551H4.37977ZM6.5165 5.79551C6.342 6.27919 6.26166 6.82624 6.21415 7.37328H9.18362C9.13654 6.82624 9.05577 6.27919 8.88127 5.79551H6.5165ZM10.8059 5.42874C9.97318 4.16911 8.83376 3.67026 7.83602 3.67026C8.35174 4.07095 8.88127 4.83306 9.10328 5.42874H10.8059ZM9.23113 5.79551C9.41081 6.27919 9.49072 6.82624 9.49072 7.37328H11.4534C11.4201 6.82624 11.2879 6.27919 11.0184 5.79551H9.23113ZM4.5547 9.58153C5.4246 10.8951 6.56401 11.3445 7.57644 11.3445C7.04647 10.9295 6.48367 10.1674 6.30399 9.58153H4.5547ZM7.70385 11.0268C8.09172 10.6658 8.52667 10.0795 8.74867 9.58153H6.64953C6.87154 10.0795 7.30648 10.6658 7.70385 11.0268ZM6.17614 9.26874C6.00165 8.7217 5.90662 8.18403 5.90662 7.69053H3.9444C3.99191 8.22329 4.11976 8.77078 4.37977 9.26874H6.17614ZM8.88127 9.26874C9.05577 8.77078 9.13654 8.22329 9.18362 7.69053H6.21415C6.26166 8.22329 6.342 8.77078 6.5165 9.26874H8.88127ZM9.10328 9.58153C8.88127 10.1674 8.35174 10.9295 7.83602 11.3445C8.83376 11.3445 9.97318 10.8951 10.8059 9.58153H9.10328ZM11.0184 9.26874C11.2879 8.77078 11.4201 8.22329 11.4534 7.69053H9.49072C9.49072 8.18403 9.41081 8.7217 9.23113 9.26874H11.0184ZM11.7605 7.50491C11.808 9.89833 9.71316 11.7059 7.96344 11.7059H3.6373L0.923096 14.5H7.91679C10.1485 14.5 12.2904 12.4243 12.2904 9.94786C12.2904 9.21966 12.2054 8.27193 11.7605 7.55399V7.50491Z" fill="#D8232A"/>
<path fill-rule="evenodd" clip-rule="evenodd" d="M32.2052 11.3355C30.3877 11.3355 29.0867 10.2079 29.0867 8.44363C29.0867 6.70077 30.4347 5.54198 32.2052 5.54198C33.9752 5.54198 35.3228 6.69318 35.3228 8.44363C35.3228 10.2079 34.0111 11.3355 32.2052 11.3355ZM63.2743 5.67629V11.219H61.4619L61.4343 10.6599H61.395C61.1937 10.8469 60.7752 11.3413 59.6064 11.3413C58.3102 11.3413 57.1742 10.1776 57.1742 8.44184C57.1742 6.8324 58.1815 5.54734 59.7256 5.54734C60.776 5.54734 61.2049 6.02522 61.366 6.17782H61.4144L61.4325 5.67629H63.2743ZM49.2826 5.67897V11.2217H47.4689L47.4421 10.6626H47.4028C47.2015 10.8495 46.7834 11.3435 45.6142 11.3435C44.318 11.3435 43.1825 10.1798 43.1825 8.44541C43.1825 6.83507 44.1897 5.55046 45.7339 5.55046C46.7839 5.55046 47.2136 6.02834 47.3743 6.18094H47.4223L47.4404 5.67897H49.2826ZM40.4756 11.2293H42.3459V5.68298H40.4756V11.2293ZM50.4863 11.2168V3.40111H52.3488V6.07966H52.3691C52.5008 5.99488 53.1042 5.54779 53.9892 5.54779C55.4405 5.54779 56.506 6.75208 56.506 8.34636C56.506 10.3378 55.3243 11.3408 53.978 11.3408C52.9595 11.3408 52.4429 10.8513 52.3151 10.7085H52.2853L52.2581 11.2168H50.4863ZM32.2052 9.94822C32.9628 9.94822 33.409 9.26196 33.409 8.44363C33.409 7.61414 32.9844 6.92744 32.2052 6.92744C31.3906 6.92744 31.0006 7.61414 31.0006 8.44363C31.0006 9.26196 31.4476 9.94822 32.2052 9.94822ZM39.5708 9.71084C39.4792 9.73717 39.2274 9.8041 39.0546 9.8041C38.6763 9.8041 38.2629 9.6216 38.2629 8.94382V7.07022H39.4364V5.67674H38.2629V3.89193H36.3966V5.67674H35.5802V7.07022H36.3966V9.26241C36.3966 10.4676 36.9382 11.3323 38.3191 11.3323C38.7199 11.3323 39.0874 11.2766 39.3405 11.2275L39.5708 9.71084ZM18.3474 11.016C18.8691 11.1793 19.6626 11.3292 20.5035 11.3292C22.096 11.3292 23.6855 10.7465 23.6855 8.9398C23.6855 6.46071 20.3765 6.80384 20.3765 5.81595C20.3765 5.30996 20.8853 5.20109 21.3838 5.20109C22.0749 5.20109 22.9499 5.54332 23.1447 5.62542L23.295 3.91781C22.8122 3.74781 22.0788 3.65143 21.3903 3.65143C19.8181 3.65143 18.2666 4.28548 18.2666 5.89493C18.2666 8.33074 21.5669 7.82252 21.5669 9.10088C21.5669 9.59215 21.0914 9.77911 20.485 9.77911C19.6526 9.77911 18.8691 9.34853 18.5301 9.19235L18.3474 11.016ZM59.1498 8.39098C59.1498 9.30792 59.6457 9.8804 60.2867 9.8804C60.8676 9.8804 61.4334 9.31863 61.4334 8.46683C61.4334 7.6079 60.9319 7.02025 60.2867 7.02025C59.6193 7.02025 59.1498 7.63601 59.1498 8.39098ZM45.1586 8.3941C45.1586 9.31015 45.6535 9.88307 46.2949 9.88307C46.8754 9.88307 47.4417 9.32175 47.4417 8.46951C47.4417 7.61102 46.9402 7.02382 46.2949 7.02382C45.6272 7.02382 45.1586 7.63868 45.1586 8.3941ZM28.6107 5.76419C28.4712 5.72404 27.959 5.54198 27.2795 5.54198C25.5985 5.54198 24.3381 6.62893 24.3381 8.43961C24.3381 10.0852 25.4693 11.3372 27.2048 11.3372C27.9434 11.3372 28.4868 11.1338 28.6107 11.095L28.52 9.47882C28.3762 9.54619 28.0034 9.76617 27.575 9.76617C26.8221 9.76617 26.2719 9.21556 26.2719 8.43961C26.2719 7.6253 26.8606 7.10146 27.5966 7.10146C28.0116 7.10146 28.3818 7.30091 28.52 7.37141L28.6107 5.76419ZM71.2264 11.2221H73.0875V8.65647H73.1078L74.7608 11.2221H76.8323L74.8373 8.28389L76.7818 5.687H74.7129L73.1078 7.97199H73.0875V3.40781H71.2264V11.2221ZM64.4815 11.2217H66.2973V8.35841C66.2973 7.68732 66.7275 7.22862 67.2786 7.22862C67.9071 7.22862 68.2638 7.65028 68.2638 8.35841V11.2217H70.0801V7.88409C70.0801 6.62804 69.2974 5.55314 67.8604 5.55314C66.9011 5.55314 66.4018 6.09126 66.1742 6.30365H66.1362L66.1176 5.68968H64.4815V11.2217ZM41.4116 2.87549C40.8354 2.87549 40.3629 3.36363 40.3629 3.95842C40.3629 4.55276 40.8354 5.0409 41.4116 5.0409C41.9865 5.0409 42.4595 4.55276 42.4595 3.95842C42.4595 3.36363 41.9865 2.87549 41.4116 2.87549ZM54.574 8.44541C54.574 7.70427 54.1646 7.04568 53.4523 7.04568C52.8247 7.04568 52.3203 7.59897 52.3203 8.44541C52.3203 9.26598 52.734 9.84961 53.4523 9.84961C54.1007 9.84961 54.574 9.2932 54.574 8.44541Z" fill="#D8232A"/>
</svg>
